<!-- Generated by IcoMoon.io -->
<svg version="1.1" xmlns="http://www.w3.org/2000/svg" width="32" height="32" viewBox="0 0 32 32">
<title>eye</title>
<path fill="none" stroke="#8a8b8c" stroke-linejoin="round" stroke-linecap="round" stroke-miterlimit="4" stroke-width="2.4" d="M12.040 18.667c-0.52-0.76-0.813-1.68-0.813-2.667 0-2.64 2.133-4.773 4.773-4.773s4.773 2.133 4.773 4.773c0 2.64-2.133 4.773-4.773 4.773"></path>
<path fill="none" stroke="#8a8b8c" stroke-linejoin="round" stroke-linecap="round" stroke-miterlimit="4" stroke-width="2.4" d="M23.413 7.44c-2.253-1.6-4.787-2.467-7.413-2.467-4.707 0-9.093 2.773-12.147 7.573-1.2 1.88-1.2 5.040 0 6.92 3.053 4.8 7.44 7.573 12.147 7.573s9.093-2.773 12.147-7.573c1.2-1.88 1.2-5.040 0-6.92"></path>
</svg>
