<!-- Generated by IcoMoon.io -->
<svg version="1.1" xmlns="http://www.w3.org/2000/svg" width="32" height="32" viewBox="0 0 32 32">
<title>lock</title>
<path fill="none" stroke="#8a8b8c" stroke-linejoin="round" stroke-linecap="round" stroke-miterlimit="4" stroke-width="2.4" d="M8 13.333v-2.667c0-4.413 1.333-8 8-8s8 3.587 8 8v2.667"></path>
<path fill="none" stroke="#8a8b8c" stroke-linejoin="round" stroke-linecap="round" stroke-miterlimit="4" stroke-width="2.4" d="M12.667 21.333c0 1.84 1.493 3.333 3.333 3.333s3.333-1.493 3.333-3.333-1.493-3.333-3.333-3.333"></path>
<path fill="none" stroke="#8a8b8c" stroke-linejoin="round" stroke-linecap="round" stroke-miterlimit="4" stroke-width="2.4" d="M29.333 22.667v-2.667c0-5.333-1.333-6.667-6.667-6.667h-13.333c-5.333 0-6.667 1.333-6.667 6.667v2.667c0 5.333 1.333 6.667 6.667 6.667h13.333c2.347 0 3.92-0.253 4.947-1"></path>
</svg>
