<svg aria-hidden="true" style="position: absolute; width: 0; height: 0; overflow: hidden;" version="1.1" xmlns="http://www.w3.org/2000/svg" xmlns:xlink="http://www.w3.org/1999/xlink">
<defs>
<symbol id="icon-eye" viewBox="0 0 32 32">
<path fill="none" stroke="#8a8b8c" style="stroke: var(--color1, #8a8b8c)" stroke-linejoin="round" stroke-linecap="round" stroke-miterlimit="4" stroke-width="2.4" d="M12.040 18.667c-0.52-0.76-0.813-1.68-0.813-2.667 0-2.64 2.133-4.773 4.773-4.773s4.773 2.133 4.773 4.773c0 2.64-2.133 4.773-4.773 4.773"></path>
<path fill="none" stroke="#8a8b8c" style="stroke: var(--color1, #8a8b8c)" stroke-linejoin="round" stroke-linecap="round" stroke-miterlimit="4" stroke-width="2.4" d="M23.413 7.44c-2.253-1.6-4.787-2.467-7.413-2.467-4.707 0-9.093 2.773-12.147 7.573-1.2 1.88-1.2 5.040 0 6.92 3.053 4.8 7.44 7.573 12.147 7.573s9.093-2.773 12.147-7.573c1.2-1.88 1.2-5.040 0-6.92"></path>
</symbol>
<symbol id="icon-lock" viewBox="0 0 32 32">
<path fill="none" stroke="#8a8b8c" style="stroke: var(--color1, #8a8b8c)" stroke-linejoin="round" stroke-linecap="round" stroke-miterlimit="4" stroke-width="2.4" d="M8 13.333v-2.667c0-4.413 1.333-8 8-8s8 3.587 8 8v2.667"></path>
<path fill="none" stroke="#8a8b8c" style="stroke: var(--color1, #8a8b8c)" stroke-linejoin="round" stroke-linecap="round" stroke-miterlimit="4" stroke-width="2.4" d="M12.667 21.333c0 1.84 1.493 3.333 3.333 3.333s3.333-1.493 3.333-3.333-1.493-3.333-3.333-3.333"></path>
<path fill="none" stroke="#8a8b8c" style="stroke: var(--color1, #8a8b8c)" stroke-linejoin="round" stroke-linecap="round" stroke-miterlimit="4" stroke-width="2.4" d="M29.333 22.667v-2.667c0-5.333-1.333-6.667-6.667-6.667h-13.333c-5.333 0-6.667 1.333-6.667 6.667v2.667c0 5.333 1.333 6.667 6.667 6.667h13.333c2.347 0 3.92-0.253 4.947-1"></path>
</symbol>
<symbol id="icon-sms" viewBox="0 0 32 32">
<path fill="none" stroke="#8a8b8c" style="stroke: var(--color1, #8a8b8c)" stroke-linejoin="round" stroke-linecap="round" stroke-miterlimit="10" stroke-width="2.4" d="M29.333 17.306v3.36c0 4.667-2.667 6.667-6.667 6.667h-13.333c-4 0-6.667-2-6.667-6.667v-9.333c0-4.667 2.667-6.667 6.667-6.667h13.333c4 0 6.667 2 6.667 6.667"></path>
<path fill="none" stroke="#8a8b8c" style="stroke: var(--color1, #8a8b8c)" stroke-linejoin="round" stroke-linecap="round" stroke-miterlimit="10" stroke-width="2.4" d="M22.667 12l-4.173 3.333c-1.373 1.093-3.627 1.093-5 0l-4.16-3.333"></path>
</symbol>
</defs>
</svg>
